<svg width="575" height="500" viewBox="0 0 575 500" fill="none" xmlns="http://www.w3.org/2000/svg">
<path d="M0 20C0 8.95432 8.95431 0 20 0H400V500H20C8.95431 500 0 491.046 0 480V20Z" fill="#404040"/>
<path d="M400 469H518.5C527.06 469 534 475.94 534 484.5V484.5C534 493.06 527.06 500 518.5 500H400V469Z" fill="#404040"/>
<path d="M400 425H424C435.046 425 444 433.954 444 445V449C444 460.046 435.046 469 424 469H400V425Z" fill="#404040"/>
<path d="M400 389H557C566.941 389 575 397.059 575 407V407C575 416.941 566.941 425 557 425H400V389Z" fill="#404040"/>
<path d="M400 354H469.5C479.165 354 487 361.835 487 371.5V371.5C487 381.165 479.165 389 469.5 389H400V354Z" fill="#404040"/>
<path d="M400 325H512.5C522.165 325 530 332.835 530 342.5V342.5C530 352.165 522.165 360 512.5 360H400V325Z" fill="#404040"/>
<path d="M400 290H438.5C448.165 290 456 297.835 456 307.5V307.5C456 317.165 448.165 325 438.5 325H400V290Z" fill="#404040"/>
<path d="M400 227H408C419.046 227 428 235.954 428 247V270C428 281.046 419.046 290 408 290H400V227Z" fill="#404040"/>
<path d="M400 197H526C534.284 197 541 203.716 541 212V212C541 220.284 534.284 227 526 227H400V197Z" fill="#404040"/>
<path d="M400 159H441C451.493 159 460 167.507 460 178V178C460 188.493 451.493 197 441 197H400V159Z" fill="#404040"/>
<path d="M400 132H482.5C489.956 132 496 138.044 496 145.5V145.5C496 152.956 489.956 159 482.5 159H400V132Z" fill="#404040"/>
<path d="M400 93H416.5C427.27 93 436 101.73 436 112.5V112.5C436 123.27 427.27 132 416.5 132H400V93Z" fill="#404040"/>
<path d="M400 62H514.5C523.06 62 530 68.9396 530 77.5V77.5C530 86.0604 523.06 93 514.5 93H400V62Z" fill="#404040"/>
<path d="M400 34H466C473.732 34 480 40.268 480 48V48C480 55.732 473.732 62 466 62H400V34Z" fill="#404040"/>
<path d="M400 0H507C516.389 0 524 7.61116 524 17V17C524 26.3888 516.389 34 507 34H400V0Z" fill="#404040"/>
</svg>
