<svg width="575" height="500" viewBox="0 0 575 500" fill="none" xmlns="http://www.w3.org/2000/svg">
<path d="M575 20C575 8.95432 566.046 0 555 0H175V500H555C566.046 500 575 491.046 575 480V20Z" fill="#924BE1"/>
<path d="M175 469H56.4998C47.9393 469 40.9998 475.94 40.9998 484.5V484.5C40.9998 493.06 47.9393 500 56.4998 500H175V469Z" fill="#924BE1"/>
<path d="M175 425H151C139.954 425 131 433.954 131 445V449C131 460.046 139.954 469 151 469H175V425Z" fill="#924BE1"/>
<path d="M175 389H17.9998C8.05863 389 -0.000244141 397.059 -0.000244141 407V407C-0.000244141 416.941 8.05863 425 17.9998 425H175V389Z" fill="#924BE1"/>
<path d="M175 354H105.5C95.8348 354 87.9998 361.835 87.9998 371.5V371.5C87.9998 381.165 95.8348 389 105.5 389H175V354Z" fill="#924BE1"/>
<path d="M175 325H62.4998C52.8348 325 44.9998 332.835 44.9998 342.5V342.5C44.9998 352.165 52.8348 360 62.4998 360H175V325Z" fill="#924BE1"/>
<path d="M175 290H136.5C126.835 290 119 297.835 119 307.5V307.5C119 317.165 126.835 325 136.5 325H175V290Z" fill="#924BE1"/>
<path d="M175 227H167C155.954 227 147 235.954 147 247V270C147 281.046 155.954 290 167 290H175V227Z" fill="#924BE1"/>
<path d="M175 197H48.9998C40.7155 197 33.9998 203.716 33.9998 212V212C33.9998 220.284 40.7155 227 48.9998 227H175V197Z" fill="#924BE1"/>
<path d="M175 159H134C123.506 159 115 167.507 115 178V178C115 188.493 123.506 197 134 197H175V159Z" fill="#924BE1"/>
<path d="M175 132H92.4998C85.0439 132 78.9998 138.044 78.9998 145.5V145.5C78.9998 152.956 85.0439 159 92.4998 159H175V132Z" fill="#924BE1"/>
<path d="M175 93H158.5C147.73 93 139 101.73 139 112.5V112.5C139 123.27 147.73 132 158.5 132H175V93Z" fill="#924BE1"/>
<path d="M175 62H60.4998C51.9393 62 44.9998 68.9396 44.9998 77.5V77.5C44.9998 86.0604 51.9393 93 60.4998 93H175V62Z" fill="#924BE1"/>
<path d="M175 34H109C101.268 34 94.9998 40.268 94.9998 48V48C94.9998 55.732 101.268 62 109 62H175V34Z" fill="#924BE1"/>
<path d="M175 0H67.9998C58.6109 0 50.9998 7.61116 50.9998 17V17C50.9998 26.3888 58.6109 34 67.9998 34H175V0Z" fill="#924BE1"/>
</svg>
